<svg xmlns="http://www.w3.org/2000/svg" xmlns:xlink="http://www.w3.org/1999/xlink" width="500" zoomAndPan="magnify" viewBox="0 0 375 374.999991" height="500" preserveAspectRatio="xMidYMid meet" version="1.0"><defs><clipPath id="4e4b608922"><path d="M 45.480469 64.4375 L 331 64.4375 L 331 278.9375 L 45.480469 278.9375 Z M 45.480469 64.4375 " clip-rule="nonzero"/></clipPath><clipPath id="65b4f465bf"><path d="M 45.480469 89.9375 L 45.480469 253.207031 C 45.480469 267.289062 56.898438 278.707031 70.980469 278.707031 L 312 278.707031 C 326.082031 278.707031 337.5 267.289062 337.5 253.207031 L 337.5 89.9375 C 337.5 75.855469 326.082031 64.4375 312 64.4375 L 70.980469 64.4375 C 56.898438 64.4375 45.480469 75.855469 45.480469 89.9375 Z M 45.480469 89.9375 " clip-rule="nonzero"/></clipPath></defs><rect x="-37.5" width="450" fill="#ffffff" y="-37.499999" height="449.999989" fill-opacity="1"/><rect x="-37.5" width="450" fill="#d8afaf" y="-37.499999" height="449.999989" fill-opacity="1"/><g clip-path="url(#4e4b608922)"><g clip-path="url(#65b4f465bf)"><path fill="#020203" d="M 186.066406 69.039062 C 185.914062 68.996094 185.765625 68.953125 185.613281 68.914062 C 185.773438 68.929688 185.925781 68.972656 186.066406 69.039062 Z M 323.746094 93.335938 C 314.824219 75.761719 289.851562 65.929688 270.527344 65.929688 C 244.949219 65.929688 236.332031 69.207031 227.109375 70.984375 L 227.109375 80.824219 C 232.171875 78.734375 247.625 67.714844 270.527344 67.714844 C 290.152344 67.714844 313.335938 77.554688 321.972656 94.53125 C 335.054688 120.457031 327.621094 148.15625 305.3125 191.65625 C 293.71875 214.902344 279.746094 242.308594 270.824219 258.988281 L 211.613281 126.96875 L 189.058594 127.355469 C 189.058594 127.355469 195.894531 130.035156 200.65625 140.464844 L 215.167969 172.667969 C 212.621094 178.75 209.570312 185.074219 205.996094 191.65625 C 194.40625 214.902344 180.425781 242.308594 171.503906 258.988281 L 94.164062 86.578125 C 104.625 77.429688 117.640625 70.808594 133.28125 68.003906 C 148.792969 65.230469 163.027344 65.71875 175.785156 68.902344 C 179.742188 69.890625 183.5625 71.136719 187.234375 72.628906 C 203.457031 79.199219 216.765625 90.480469 226.652344 104.953125 L 226.652344 90.058594 C 214.808594 80.453125 201.21875 73.308594 186.074219 69.039062 C 185.925781 68.996094 185.773438 68.953125 185.621094 68.914062 C 175.042969 65.980469 163.726562 64.4375 151.710938 64.4375 C 129.707031 64.4375 109.324219 71.179688 92.421875 82.703125 C 88.335938 85.492188 84.453125 88.558594 80.792969 91.878906 C 59.132812 111.558594 45.554688 140.085938 45.554688 171.6875 C 45.554688 230.984375 92.84375 278.957031 151.710938 278.957031 C 163.609375 278.957031 169.554688 278.0625 176.699219 276.5625 C 183.832031 275.070312 190.976562 272.695312 197.804688 269.714844 C 204.640625 266.4375 210.886719 262.570312 216.832031 257.800781 C 222.785156 253.03125 228.140625 247.671875 232.597656 241.109375 C 227.554688 247.671875 221.304688 253.328125 213.875 258.398438 C 207.625 262.863281 199.890625 267.335938 190.085938 270.902344 C 182.5 273.664062 174.917969 275.535156 165.011719 276.25 C 164.601562 277.042969 164.382812 277.464844 164.382812 277.464844 L 163.867188 276.328125 C 161.277344 276.488281 158.539062 276.570312 155.59375 276.570312 C 106.53125 276.570312 71.4375 232.476562 63.40625 187.484375 C 57.882812 156.84375 64.339844 122.199219 83.492188 97.859375 L 163.859375 276.328125 C 164.246094 276.300781 164.625 276.277344 165.003906 276.25 C 169.519531 267.53125 197.175781 214.160156 208.082031 192.851562 C 210.730469 187.804688 214.90625 178.875 216.429688 175.464844 L 263.703125 277.472656 C 263.703125 277.472656 295.519531 216.097656 307.40625 192.851562 C 329.992188 148.453125 337.140625 120.152344 323.746094 93.335938 Z M 163.859375 276.328125 L 164.375 277.464844 C 164.375 277.464844 164.59375 277.035156 165.003906 276.25 C 164.625 276.277344 164.238281 276.300781 163.859375 276.328125 Z M 163.859375 276.328125 " fill-opacity="1" fill-rule="nonzero"/></g></g></svg>